<svg width="1024" height="1024" viewBox="0 0 1024 1024" fill="none" xmlns="http://www.w3.org/2000/svg">
<path d="M149.15 433.873L111.911 420.523C109.519 419.666 107 421.439 107 423.98V469.868C107 471.446 108.009 472.848 109.506 473.349L149.18 486.636C149.872 486.868 150.619 486.888 151.323 486.694L290.433 448.268C292.024 447.828 293.126 446.38 293.126 444.729V399.817C293.126 397.393 290.819 395.634 288.482 396.276L151.362 433.957C150.633 434.158 149.861 434.128 149.15 433.873Z" fill="black"/>
<path d="M149.117 496.976L111.954 483.127C109.554 482.233 107 484.007 107 486.567V531.526C107 533.076 107.973 534.459 109.433 534.982L149.145 549.219C149.859 549.475 150.635 549.504 151.366 549.301L264.838 517.825C266.427 517.384 267.528 515.937 267.528 514.287V469.102C267.528 466.667 265.201 464.907 262.858 465.569L151.398 497.069C150.647 497.281 149.848 497.248 149.117 496.976Z" fill="black"/>
<path d="M107 594.062V548.847C107 546.296 109.537 544.523 111.932 545.398L149.133 558.998C149.854 559.261 150.641 559.292 151.38 559.086L288.468 520.826C290.808 520.173 293.126 521.933 293.126 524.363V569.872C293.126 571.521 292.028 572.967 290.44 573.41L151.379 612.12C150.64 612.326 149.855 612.295 149.134 612.031L109.411 597.51C107.963 596.981 107 595.603 107 594.062Z" fill="black"/>
<path d="M281.531 461.35C281.031 460.938 280.424 460.677 279.781 460.597C279.138 460.516 278.486 460.621 277.9 460.897C277.314 461.174 276.819 461.611 276.472 462.158C276.125 462.705 275.941 463.34 275.941 463.988V511.813C275.941 514.98 279.87 516.443 281.941 514.051L293.981 500.135C294.462 499.58 295.057 499.134 295.726 498.829C296.394 498.523 297.12 498.365 297.855 498.365H316.961C320.165 498.365 321.607 494.348 319.134 492.311L281.531 461.35Z" fill="#F59E0B"/>
<mask id="mask0_1852_1467" style="mask-type:alpha" maskUnits="userSpaceOnUse" x="107" y="396" width="187" height="217">
<path d="M149.189 434.03L111.95 420.68C109.558 419.822 107.039 421.595 107.039 424.136V470.024C107.039 471.603 108.048 473.004 109.545 473.506L149.219 486.793C149.911 487.025 150.658 487.045 151.362 486.85L290.472 448.424C292.063 447.984 293.166 446.536 293.166 444.885V399.973C293.166 397.549 290.858 395.79 288.521 396.433L151.401 434.114C150.672 434.314 149.9 434.285 149.189 434.03Z" fill="#0D1117"/>
<path d="M149.156 497.132L111.993 483.283C109.594 482.389 107.039 484.163 107.039 486.724V531.683C107.039 533.233 108.012 534.616 109.472 535.139L149.184 549.375C149.898 549.631 150.674 549.66 151.405 549.457L264.877 517.981C266.466 517.54 267.567 516.093 267.567 514.443V469.258C267.567 466.824 265.24 465.063 262.897 465.725L151.437 497.225C150.686 497.437 149.888 497.404 149.156 497.132Z" fill="#0D1117"/>
<path d="M107.039 594.218V549.003C107.039 546.452 109.576 544.679 111.971 545.555L149.172 559.154C149.894 559.418 150.68 559.448 151.42 559.242L288.507 520.983C290.848 520.329 293.166 522.089 293.166 524.519V570.029C293.166 571.677 292.067 573.124 290.479 573.566L151.418 612.276C150.679 612.482 149.894 612.451 149.173 612.188L109.45 597.666C108.002 597.137 107.039 595.759 107.039 594.218Z" fill="#0D1117"/>
</mask>
<g mask="url(#mask0_1852_1467)">
<rect x="68.6914" y="370.477" width="80.9778" height="273.53" fill="#374151"/>
</g>
<path d="M363.113 549V441.273H426.21V460.664H384.658V484.826H425.44V503.601H384.658V529.609H426.518V549H363.113ZM475.145 551.001C467.861 551.001 461.192 549.154 455.139 545.46C449.188 541.664 444.417 536.637 440.826 530.379C437.338 524.018 435.594 516.99 435.594 509.295C435.594 503.55 436.62 498.163 438.672 493.136C440.724 488.006 443.545 483.543 447.136 479.747C450.727 475.848 454.882 472.822 459.602 470.667C464.424 468.41 469.605 467.282 475.145 467.282C482.019 467.282 487.405 468.564 491.304 471.129C495.203 473.694 498.229 477.08 500.384 481.286V436.656H521.16V549H500.999V535.919C498.845 540.433 495.767 544.075 491.766 546.845C487.867 549.616 482.327 551.001 475.145 551.001ZM478.531 532.225C483.148 532.225 487.098 531.199 490.381 529.147C493.766 526.993 496.383 524.172 498.229 520.683C500.076 517.195 500.999 513.399 500.999 509.295C500.999 505.089 500.076 501.241 498.229 497.753C496.383 494.265 493.766 491.443 490.381 489.289C487.098 487.134 483.148 486.057 478.531 486.057C474.119 486.057 470.22 487.134 466.835 489.289C463.552 491.341 460.987 494.111 459.14 497.599C457.293 501.087 456.37 504.935 456.37 509.141C456.37 513.142 457.293 516.938 459.14 520.529C460.987 524.018 463.552 526.839 466.835 528.994C470.22 531.148 474.119 532.225 478.531 532.225ZM543.815 462.357C540.327 462.357 537.351 461.177 534.889 458.817C532.529 456.355 531.349 453.431 531.349 450.045C531.349 446.762 532.529 443.941 534.889 441.581C537.351 439.119 540.327 437.887 543.815 437.887C547.406 437.887 550.381 439.119 552.741 441.581C555.1 443.941 556.28 446.762 556.28 450.045C556.28 453.534 555.1 456.458 552.741 458.817C550.381 461.177 547.406 462.357 543.815 462.357ZM533.504 549V468.974H554.28V549H533.504ZM596.885 549C588.985 549 582.932 547.051 578.725 543.152C574.519 539.253 572.415 532.944 572.415 524.223V486.672H561.181V468.974H572.415V452.815L593.191 450.661V468.974H610.12V486.672H593.191V523.146C593.191 528.07 595.346 530.533 599.655 530.533H608.273V549H596.885ZM621.609 549V441.273H643.154V484.672H687.784V441.273H709.329V549H687.784V504.063H643.154V549H621.609ZM733.479 462.357C729.991 462.357 727.015 461.177 724.553 458.817C722.193 456.355 721.013 453.431 721.013 450.045C721.013 446.762 722.193 443.941 724.553 441.581C727.015 439.119 729.991 437.887 733.479 437.887C737.07 437.887 740.045 439.119 742.405 441.581C744.765 443.941 745.944 446.762 745.944 450.045C745.944 453.534 744.765 456.458 742.405 458.817C740.045 461.177 737.07 462.357 733.479 462.357ZM723.168 549V468.974H743.944V549H723.168ZM781.162 549L747.767 468.974H772.39L788.396 514.681C789.832 518.785 790.96 523.043 791.781 527.455C792.602 523.043 793.731 518.785 795.167 514.681L811.172 468.974H835.334L802.092 549H781.162ZM872.401 551.001C864.193 551.001 856.96 549.103 850.702 545.307C844.443 541.51 839.57 536.483 836.082 530.225C832.696 523.864 831.003 516.836 831.003 509.141C831.003 501.446 832.798 494.418 836.389 488.057C839.98 481.594 844.854 476.464 851.009 472.668C857.268 468.872 864.398 466.974 872.401 466.974C880.403 466.974 887.431 468.872 893.485 472.668C899.64 476.464 904.411 481.594 907.797 488.057C911.285 494.418 913.029 501.446 913.029 509.141C913.029 510.27 912.978 511.45 912.875 512.681C912.773 513.912 912.619 515.194 912.414 516.528H852.548C853.677 521.248 855.934 525.095 859.32 528.07C862.808 531.046 867.168 532.533 872.401 532.533C876.915 532.533 880.814 531.507 884.097 529.455C887.483 527.403 890.099 524.838 891.946 521.761L908.105 533.918C904.924 538.945 900.153 543.049 893.792 546.23C887.431 549.41 880.301 551.001 872.401 551.001ZM872.093 484.826C867.168 484.826 862.962 486.313 859.474 489.289C855.985 492.264 853.677 496.163 852.548 500.985H892.099C890.971 496.573 888.611 492.777 885.02 489.596C881.532 486.416 877.223 484.826 872.093 484.826Z" fill="#0A0E14"/>
</svg>
