<svg width="1024" height="1024" viewBox="0 0 1024 1024" fill="none" xmlns="http://www.w3.org/2000/svg">
<path d="M294.918 288.296L175.887 245.625C168.242 242.884 160.191 248.551 160.191 256.672V403.348C160.191 408.393 163.416 412.874 168.2 414.476L295.012 456.946C297.227 457.688 299.613 457.752 301.864 457.13L746.508 334.305C751.596 332.9 755.119 328.271 755.119 322.993V179.439C755.119 171.691 747.744 166.07 740.274 168.122L301.988 288.565C299.659 289.205 297.191 289.111 294.918 288.296Z" fill="#F59E0B"/>
<path d="M294.814 489.995L176.025 445.729C168.356 442.871 160.191 448.542 160.191 456.726V600.43C160.191 605.385 163.303 609.806 167.967 611.478L294.903 656.983C297.185 657.801 299.664 657.892 302 657.244L664.697 556.635C669.779 555.226 673.296 550.6 673.296 545.327V400.9C673.296 393.118 665.858 387.491 658.369 389.607L302.103 490.291C299.704 490.969 297.151 490.865 294.814 489.995Z" fill="#F59E0B"/>
<path d="M160.191 800.316V655.792C160.191 647.64 168.299 641.971 175.956 644.77L294.863 688.239C297.17 689.082 299.682 689.18 302.047 688.52L740.229 566.23C747.71 564.142 755.119 569.766 755.119 577.533V722.999C755.119 728.268 751.607 732.891 746.531 734.304L302.044 858.037C299.681 858.695 297.171 858.596 294.868 857.754L167.898 811.338C163.27 809.646 160.191 805.243 160.191 800.316Z" fill="#F59E0B"/>
<path d="M718.054 376.122C716.456 374.805 714.516 373.97 712.461 373.713C710.406 373.456 708.321 373.79 706.448 374.673C704.575 375.557 702.992 376.955 701.883 378.704C700.775 380.454 700.187 382.482 700.188 384.553V537.419C700.188 547.543 712.746 552.217 719.364 544.572L757.848 500.093C759.386 498.317 761.288 496.893 763.425 495.917C765.561 494.941 767.883 494.436 770.232 494.436H831.3C841.544 494.436 846.152 481.593 838.246 475.085L718.054 376.122Z" fill="white"/>
<mask id="mask0_1852_1387" style="mask-type:alpha" maskUnits="userSpaceOnUse" x="160" y="168" width="596" height="691">
<path d="M295.043 288.796L176.012 246.125C168.367 243.384 160.316 249.051 160.316 257.172V403.848C160.316 408.893 163.541 413.374 168.325 414.976L295.137 457.446C297.352 458.188 299.738 458.252 301.989 457.63L746.633 334.805C751.721 333.4 755.244 328.771 755.244 323.493V179.939C755.244 172.191 747.869 166.57 740.399 168.622L302.113 289.065C299.784 289.705 297.316 289.611 295.043 288.796Z" fill="#0D1117"/>
<path d="M294.939 490.495L176.15 446.229C168.481 443.371 160.316 449.042 160.316 457.226V600.93C160.316 605.885 163.428 610.306 168.092 611.978L295.028 657.483C297.31 658.301 299.789 658.392 302.125 657.744L664.822 557.135C669.904 555.726 673.421 551.1 673.421 545.827V401.4C673.421 393.618 665.983 387.991 658.494 390.107L302.228 490.791C299.829 491.469 297.276 491.365 294.939 490.495Z" fill="#0D1117"/>
<path d="M160.316 800.816V656.292C160.316 648.14 168.424 642.471 176.081 645.27L294.988 688.739C297.295 689.582 299.807 689.68 302.172 689.02L740.354 566.73C747.835 564.642 755.244 570.266 755.244 578.033V723.499C755.244 728.768 751.732 733.391 746.656 734.804L302.169 858.537C299.806 859.195 297.296 859.096 294.993 858.254L168.023 811.838C163.395 810.146 160.316 805.743 160.316 800.816Z" fill="#0D1117"/>
</mask>
<g mask="url(#mask0_1852_1387)">
<rect x="37.7422" y="85.6562" width="258.834" height="874.299" fill="#78350F"/>
</g>
</svg>
